<svg xmlns="http://www.w3.org/2000/svg" viewBox="0 0 100 100">
  <path fill="#111" d="M63.85 74.44c-.46 0-.97-.03-1.67-.15l-2.46-.43.86-4.93 2.46.43c.56.1.79.09 1.33.06.49-.02 1.19-.02 1.9-.04l18.23-.1-2.05-1.88c-1.94-1.78-2.33-4.68-.93-6.9 1.9-3.01 2.9-6.49 2.9-10.07 0-5.29-2.13-10.2-5.99-13.83-3.86-3.62-8.92-5.43-14.23-5.09-.1 0-.2 0-.3 0l-2.51.37-.73-4.95 2.47-.36c.82-.12 1.42.02 1.87.27-.38-.22-.81-.32-1.21-.32 6.8-.43 13.18 1.85 18.06 6.43 4.81 4.51 7.57 10.88 7.57 17.47 0 4.53-1.27 8.93-3.68 12.74-.11.17-.08.4.08.55l6.75 6.18c.76.7 1.01 1.78.64 2.74-.37.96-1.29 1.59-2.32 1.6l-24.54.13c-.56.02-1.32.02-1.79.04-.24.01-.48.02-.73.02ZM65.39 27.11c.67.58.83 1.39.84 1.46-.11-.62-.43-1.11-.84-1.46Z"/>
  <path fill="#111" d="M9.11 82.95c-1.08 0-2.03-.69-2.37-1.71-.34-1.02.02-2.15.88-2.79l7.8-5.81c.18-.13.23-.3.24-.42.01-.11 0-.32-.17-.52-5.26-6-8.15-13.71-8.15-21.69 0-9.09 3.81-17.86 10.45-24.07 6.74-6.3 15.54-9.42 24.78-8.79 16.28 1.1 29.42 14.21 30.56 30.49h0c.65 9.26-2.46 18.08-8.76 24.84-6.49 6.96-15.81 10.86-25.32 10.46l-29.94.04h0ZM39.11 77.91s.07 0 .11 0c.35.02.71.02 1.06.02 7.72 0 15.17-3.24 20.44-8.89 5.34-5.73 7.98-13.22 7.43-21.08-.97-13.8-12.11-24.92-25.91-25.85-7.85-.54-15.31 2.12-21.03 7.46-5.64 5.27-8.87 12.71-8.87 20.42 0 6.77 2.46 13.31 6.91 18.4 1.04 1.19 1.55 2.78 1.38 4.34-.17 1.55-.98 2.97-2.23 3.91l-1.74 1.29 22.44-.03h0Z"/>
  <circle cx="52.82" cy="50" r="4.45" fill="#111"/>
  <circle cx="39.91" cy="50" r="4.45" fill="#111"/>
  <circle cx="27" cy="50" r="4.45" fill="#111"/>
</svg>
